Coordinates
version=1
nRows=29
nColumns=14
inDegrees=yes

Units are S.I. units (second, meters, Newtons, ...)
Angles are in degrees.

endheader
time	pelvis_tilt	pelvis_list	pelvis_rotation	pelvis_tx	pelvis_ty	pelvis_tz	hip_flexion_r	hip_adduction_r	hip_rotation_r	knee_angle_r	ankle_angle_r	subtalar_angle_r	mtp_angle_r
      0.00000000	    -14.56520839	     -2.79071105	      7.67785916	     -0.68205250	      0.84195085	     -0.09703403	     41.92426861	      0.88966731	    -10.64929885	    -11.28340929	     -3.92675362	     -1.61393315	      0.00000000
      0.01000000	    -14.38436879	     -2.88486704	      7.16588206	     -0.66456182	      0.84215846	     -0.09492262	     41.51500413	      1.47208079	    -10.10183365	    -12.45888640	     -6.39599191	     -1.93388871	      0.00000000
      0.02000000	    -14.33896832	     -3.07989449	      6.51829301	     -0.64753560	      0.84252860	     -0.09239731	     41.26839586	      2.20914054	     -9.51956696	    -13.70299141	     -7.84049631	     -1.56452863	      0.00000000
      0.03000000	    -14.33840547	     -3.28627339	      5.77924256	     -0.63064916	      0.84309710	     -0.08950510	     41.16912357	      3.00445810	     -8.94580833	    -15.43253880	     -8.11005114	     -0.39086244	      0.00000000
      0.04000000	    -14.24795977	     -3.51933442	      5.03384947	     -0.61386618	      0.84383385	     -0.08655762	     41.11774383	      3.81318705	     -8.32129355	    -17.51914149	     -8.34518988	     -0.41611867	      0.00000000
      0.05000000	    -14.10741724	     -3.91581973	      4.43679840	     -0.59769332	      0.84443622	     -0.08399997	     41.10738097	      4.65385747	     -7.92252319	    -19.74205719	     -7.98243821	     -0.99884768	      0.00000000
      0.06000000	    -13.82766502	     -4.31469086	      3.81799695	     -0.58176823	      0.84514562	     -0.08166145	     40.89798909	      5.54017814	     -7.59334636	    -21.99089224	     -6.67959077	     -1.09064362	      0.00000000
      0.07000000	    -13.52805633	     -4.68904854	      3.11763734	     -0.56627568	      0.84577710	     -0.07944610	     40.53508128	      6.48698890	     -7.18076196	    -24.04659184	     -4.88623816	     -0.82978639	      0.00000000
      0.08000000	    -13.28683141	     -5.07849178	      2.38831707	     -0.55129888	      0.84621321	     -0.07732170	     40.03396922	      7.46902565	     -6.77350963	    -25.63978499	     -3.41674658	     -0.92875771	      0.00000000
      0.09000000	    -13.13087428	     -5.54846703	      1.67478850	     -0.53682889	      0.84654206	     -0.07521808	     39.34274965	      8.52194024	     -6.46769818	    -26.64305247	     -2.12448693	     -1.17069462	      0.00000000
      0.10000000	    -13.06208058	     -6.08113359	      1.02165485	     -0.52281781	      0.84697792	     -0.07302510	     38.44808227	      9.60931619	     -6.29472590	    -27.04645094	     -0.82965718	     -1.25493598	      0.00000000
      0.11000000	    -13.09937445	     -6.58179896	      0.46120921	     -0.50918269	      0.84759847	     -0.07072268	     37.45993064	     10.60117243	     -6.24068532	    -27.02287490	      0.30613645	     -1.32472510	      0.00000000
      0.12000000	    -13.18793874	     -6.94897326	      0.04737969	     -0.49560145	      0.84867515	     -0.06839402	     36.36848776	     11.37213700	     -6.31412857	    -26.72074746	      1.44046061	     -1.19328685	      0.00000000
      0.13000000	    -13.35570500	     -7.11520877	     -0.22474673	     -0.48217050	      0.85021208	     -0.06618330	     35.25664407	     11.87196335	     -6.37276041	    -26.22394323	      2.43327032	     -1.04776601	      0.00000000
      0.14000000	    -13.66128945	     -6.97943104	     -0.39081521	     -0.46903172	      0.85208907	     -0.06424400	     34.29025831	     12.00069843	     -6.34828790	    -25.72209365	      3.33829441	     -0.83724422	      0.00000000
      0.15000000	    -13.97635803	     -6.69200169	     -0.43492244	     -0.45582624	      0.85435472	     -0.06257706	     33.29196911	     11.90682536	     -6.31527775	    -25.14939345	      4.14859890	     -0.59347394	      0.00000000
      0.16000000	    -14.18720599	     -6.36757231	     -0.40295888	     -0.44249800	      0.85694069	     -0.06115422	     32.12815055	     11.74449771	     -6.25045910	    -24.47015524	      4.81477604	     -0.41877542	      0.00000000
      0.17000000	    -14.29777788	     -6.02177463	     -0.32809388	     -0.42914922	      0.85972781	     -0.06002799	     30.78612148	     11.55158628	     -6.10000390	    -23.63851366	      5.30897483	     -0.38642910	      0.00000000
      0.18000000	    -14.30222089	     -5.58558734	     -0.24051904	     -0.41576548	      0.86268611	     -0.05917421	     29.26150657	     11.23959112	     -5.94549438	    -22.68898438	      5.80268865	     -0.24507044	      0.00000000
      0.19000000	    -14.24177555	     -5.05599074	     -0.15564714	     -0.40236706	      0.86570289	     -0.05853572	     27.64082128	     10.82803891	     -5.73262322	    -21.68897749	      6.23027735	     -0.15317849	      0.00000000
      0.20000000	    -14.14539842	     -4.53788651	     -0.11129176	     -0.38896767	      0.86873275	     -0.05795724	     25.90138883	     10.48756128	     -5.31595627	    -20.46890819	      6.24028659	     -0.51022937	      0.00000000
      0.21000000	    -14.01253425	     -4.05007902	     -0.09809299	     -0.37548829	      0.87164234	     -0.05745391	     24.07454323	     10.17569094	     -4.80602340	    -19.17983311	      6.18591445	     -0.87561090	      0.00000000
      0.22000000	    -13.92602240	     -3.61288587	     -0.10499324	     -0.36206490	      0.87418632	     -0.05703478	     22.27387770	      9.92013617	     -4.22757684	    -17.81556875	      6.04243076	     -1.43934922	      0.00000000
      0.23000000	    -13.89887262	     -3.30909222	     -0.15342808	     -0.34876873	      0.87636579	     -0.05667651	     20.55172608	      9.82767665	     -3.25540481	    -16.58443133	      5.64294876	     -2.11242137	      0.00000000
      0.24000000	    -13.91370115	     -3.08264750	     -0.23150813	     -0.33555147	      0.87813153	     -0.05637391	     18.89731812	      9.81496402	     -2.13104673	    -15.41363333	      5.02316332	     -2.93557200	      0.00000000
      0.25000000	    -13.95466191	     -2.70482554	     -0.33051140	     -0.32233389	      0.87920799	     -0.05622161	     17.29235551	      9.55916174	     -1.87689230	    -13.87688319	      4.90141230	     -3.94891648	      0.00000000
      0.26000000	    -14.04247162	     -2.40047060	     -0.50139945	     -0.30916173	      0.87991886	     -0.05608833	     15.76679376	      9.40640566	     -1.14380136	    -12.54374666	      4.42375195	     -4.99540794	      0.00000000
      0.27000000	    -14.13344440	     -2.11879086	     -0.69876527	     -0.29605624	      0.88025510	     -0.05607569	     14.36013841	      9.21429697	     -0.67870827	    -11.48270851	      4.29787092	     -5.41248922	      0.00000000
      0.28000000	    -14.17761321	     -1.98471807	     -0.83495550	     -0.28271779	      0.88026288	     -0.05622287	     12.92927901	      9.10346264	     -0.70573900	    -10.50079378	      4.57732957	     -5.26005964	      0.00000000
